<svg width="15" height="15" viewBox="0 0 15 15" fill="none" xmlns="http://www.w3.org/2000/svg">
<path d="M8.36539 3.17853C7.39757 3.17853 6.46939 3.56299 5.78504 4.24734C5.10068 4.9317 4.71622 5.85988 4.71622 6.82769V9.00868L4.28623 9.43867C4.20119 9.52373 4.14329 9.63209 4.11983 9.75005C4.09638 9.86801 4.10842 9.99028 4.15444 10.1014C4.20047 10.2125 4.2784 10.3075 4.37839 10.3743C4.47839 10.4412 4.59595 10.4768 4.71622 10.4769H12.0146C12.1348 10.4768 12.2524 10.4412 12.3524 10.3743C12.4524 10.3075 12.5303 10.2125 12.5763 10.1014C12.6224 9.99028 12.6344 9.86801 12.6109 9.75005C12.5875 9.63209 12.5296 9.52373 12.4445 9.43867L12.0146 9.00868V6.82769C12.0146 5.85988 11.6301 4.9317 10.9457 4.24734C10.2614 3.56299 9.33321 3.17853 8.36539 3.17853ZM8.36539 12.9096C7.88148 12.9096 7.41739 12.7174 7.07521 12.3752C6.73303 12.0331 6.5408 11.569 6.5408 11.0851H10.19C10.19 11.569 9.99774 12.0331 9.65556 12.3752C9.31339 12.7174 8.8493 12.9096 8.36539 12.9096Z" fill="#1A4FBA"/>
</svg>
