<svg width="15" height="15" viewBox="0 0 15 15" fill="none" xmlns="http://www.w3.org/2000/svg">
<g clip-path="url(#clip0_907_2270)">
<path d="M11.0174 1.31132L5.95722 2.44096C5.62364 2.51541 5.57781 2.96007 5.88454 3.11028L6.83843 3.57745C8.8871 4.58075 10.1182 6.13882 10.1153 6.13602C11.4485 7.71774 14.0743 7.21611 14.6347 4.97437C15.1852 2.83208 13.2453 0.813959 11.0174 1.31132Z" fill="white"/>
<path d="M11.0842 4.12314C11.0879 4.12466 9.36761 3.13284 7.09307 2.95899L6.03405 2.87803C5.86922 2.86543 5.75583 2.7581 5.71448 2.62894C5.63522 2.79263 5.68589 3.01308 5.88437 3.11028L6.83825 3.57742C8.88692 4.58073 10.118 6.13879 10.1151 6.136C11.4483 7.71771 14.0741 7.21609 14.6345 4.97432C14.7984 4.33623 14.7414 3.70919 14.5217 3.1563C13.8512 4.30557 12.3622 4.80704 11.0842 4.12314Z" fill="white"/>
<path d="M12.3988 9.54497L9.32257 7.87368C9.05591 7.72883 8.76091 7.98715 8.86107 8.27493L9.04114 8.79211C9.58501 10.3543 9.59316 11.7009 9.59033 11.6397C9.65851 13.1199 11.3157 14.0284 12.5905 13.1898C13.9267 12.2985 13.8106 10.312 12.3988 9.54497Z" fill="white"/>
<path d="M10.733 11.3149C10.7509 11.3735 10.4078 10.0714 9.49208 8.69378L9.1889 8.23771C9.09681 8.09916 9.12113 7.93991 9.21 7.83579C8.98103 7.80207 8.77492 8.0275 8.86108 8.27496L9.04115 8.79215C9.58502 10.3543 9.59316 11.7009 9.59034 11.6397C9.65852 13.1199 11.3157 14.0284 12.5905 13.1898C12.8303 13.0298 13.023 12.8345 13.1702 12.6174C12.1947 12.917 11.0624 12.3889 10.733 11.3149Z" fill="white"/>
<path d="M5.91684 8.27931C4.74036 7.28228 3.4263 6.2733 2.26359 4.14795C2.0362 3.816 1.52621 3.93386 1.47986 4.33367L0.849971 9.76469C0.571288 12.1677 2.95137 13.977 5.15241 13.1476C7.19641 12.3777 7.60952 9.65967 5.91684 8.27931Z" fill="white"/>
<path d="M2.62164 9.62907L1.8757 4.21274C1.86237 4.11589 1.87983 4.02846 1.91803 3.95518C1.71233 3.94866 1.50837 4.08768 1.47983 4.33359L0.849971 9.76464C0.571288 12.1676 2.95137 13.9769 5.15241 13.1476C5.61087 12.9749 5.98697 12.704 6.276 12.3724C4.61253 12.6137 2.87909 11.4982 2.62164 9.62907Z" fill="white"/>
</g>
<defs>
<clipPath id="clip0_907_2270">
<rect width="13.9016" height="13.9016" fill="white" transform="translate(0.827393 0.421906)"/>
</clipPath>
</defs>
</svg>
