<svg width="16" height="17" viewBox="0 0 16 17" fill="none" xmlns="http://www.w3.org/2000/svg">
<g clip-path="url(#clip0_907_2220)">
<path d="M13.7971 5.52591C13.7834 5.50255 13.7695 5.47956 13.7556 5.45692C13.1125 4.41561 11.8676 3.88435 10.6574 4.13481C10.3802 4.19218 9.96797 4.30929 9.57843 4.54138C9.18496 4.77575 8.90952 5.07059 8.75966 5.41767C8.51128 5.99302 8.62045 6.67805 9.08416 7.45389C9.71493 8.5095 9.56313 9.59552 9.42902 10.5537C9.34784 11.1337 9.27775 11.6347 9.38569 12.0615C9.50949 12.5507 9.8626 12.8666 10.4655 13.0273C10.5724 13.0559 10.6825 13.0704 10.793 13.0705C11.3651 13.0705 11.9539 12.6816 12.5141 11.928C13.7823 10.2221 14.6234 6.9329 13.7971 5.52591V5.52591Z" fill="white"/>
<path d="M9.39185 4.03821C9.44387 4.03821 9.49579 4.03331 9.54692 4.02357C9.81974 3.97166 10.0495 3.79061 10.1939 3.51381C10.3325 3.24832 10.3757 2.92415 10.3157 2.60105C10.1896 1.92134 9.63947 1.45363 9.08955 1.5582C8.81675 1.6101 8.58696 1.79116 8.44257 2.06796C8.30403 2.33345 8.26079 2.65762 8.32077 2.98072C8.43493 3.59639 8.89702 4.03821 9.39185 4.03821V4.03821Z" fill="white"/>
<path d="M11.2853 3.70725C11.3027 3.70853 11.32 3.70916 11.3372 3.70916C11.7764 3.70916 12.1546 3.29999 12.1925 2.77027C12.2137 2.51822 12.1482 2.26651 12.0071 2.05781C11.8627 1.85068 11.657 1.72733 11.4282 1.71054C10.9674 1.67653 10.5604 2.09705 10.521 2.64752C10.4998 2.89956 10.5653 3.15125 10.7063 3.35996C10.8509 3.56718 11.0565 3.69044 11.2853 3.70725V3.70725Z" fill="white"/>
<path d="M12.9085 3.85426C12.9215 3.85522 12.9343 3.85568 12.9471 3.85567C13.269 3.85567 13.5459 3.55936 13.5734 3.17551C13.5885 2.99386 13.5411 2.81251 13.4394 2.66219C13.3917 2.58985 13.3285 2.52933 13.2545 2.48513C13.1806 2.44093 13.0977 2.41419 13.0121 2.40689C12.6743 2.38216 12.3758 2.68653 12.3472 3.08561C12.3321 3.26732 12.3795 3.44874 12.4813 3.59911C12.529 3.67143 12.5922 3.73192 12.6662 3.77609C12.7401 3.82026 12.823 3.84698 12.9085 3.85426V3.85426Z" fill="white"/>
<path d="M13.491 4.28879C13.5155 4.36221 13.556 4.42909 13.6095 4.48446C13.663 4.53983 13.7281 4.58226 13.8001 4.6086C13.8507 4.62649 13.9039 4.63558 13.9575 4.63548C14.1955 4.63548 14.4304 4.45885 14.5246 4.18572C14.5787 4.03463 14.5795 3.86925 14.5269 3.71762C14.5025 3.6442 14.462 3.57731 14.4085 3.52194C14.355 3.46657 14.2898 3.42413 14.2179 3.39777C13.9336 3.29712 13.6086 3.48681 13.4933 3.82057C13.4392 3.97169 13.4384 4.13712 13.491 4.28879V4.28879Z" fill="white"/>
<path d="M15.0319 4.63906C14.8008 4.44343 14.4306 4.50489 14.2066 4.77611C14.1035 4.89819 14.0452 5.05265 14.0416 5.2133C14.0389 5.29076 14.0535 5.36782 14.0844 5.43875C14.1152 5.50968 14.1614 5.57265 14.2195 5.62299C14.3099 5.6984 14.4237 5.73893 14.5408 5.73738C14.6378 5.73503 14.7331 5.71133 14.8202 5.66791C14.9072 5.62449 14.9839 5.56239 15.0448 5.48593C15.148 5.36384 15.2063 5.20936 15.2099 5.04868C15.2126 4.97123 15.1979 4.89418 15.1671 4.82326C15.1363 4.75234 15.0901 4.68938 15.0319 4.63906V4.63906Z" fill="white"/>
<path d="M4.90175 6.87466C3.67113 6.98188 2.62594 7.84888 2.30092 9.03205C2.29385 9.0578 2.28697 9.08385 2.28029 9.11022C1.89658 10.6385 3.28858 13.1695 4.78954 14.4116C5.42055 14.9337 6.03369 15.202 6.57403 15.202C6.79633 15.2038 7.0161 15.1541 7.21659 15.0568C7.78629 14.7777 8.06309 14.4277 8.08773 13.9556C8.10919 13.5453 7.93611 13.1008 7.73571 12.5861C7.40691 11.7417 7.0342 10.7845 7.33989 9.60591C7.56726 8.72894 7.48016 8.04066 7.08095 7.56025C6.84008 7.2704 6.49336 7.06674 6.0504 6.95491C5.61175 6.84402 5.18366 6.85005 4.90175 6.87466ZM2.8562 10.0841C2.85007 10.0479 2.84448 10.0119 2.83943 9.97608C2.83391 9.93687 2.84398 9.89704 2.86743 9.86536C2.89088 9.83367 2.9258 9.81273 2.9645 9.80713C3.00319 9.80153 3.0425 9.81173 3.07377 9.8355C3.10504 9.85926 3.12571 9.89464 3.13124 9.93385C3.13589 9.96688 3.14106 10.0001 3.14674 10.0335C3.15002 10.0529 3.1495 10.0727 3.14523 10.0918C3.14095 10.1109 3.133 10.129 3.12183 10.145C3.11066 10.161 3.09648 10.1747 3.08011 10.1851C3.06374 10.1956 3.0455 10.2027 3.02642 10.206C3.00735 10.2093 2.98781 10.2088 2.96894 10.2045C2.95006 10.2001 2.93221 10.1921 2.91641 10.1808C2.90061 10.1694 2.88716 10.1551 2.87683 10.1385C2.86651 10.1219 2.85951 10.1034 2.85623 10.0841H2.8562ZM3.95327 12.3729C3.93677 12.3831 3.91844 12.39 3.89932 12.393C3.88021 12.3961 3.86068 12.3953 3.84186 12.3907C3.82304 12.3862 3.8053 12.3779 3.78964 12.3664C3.77398 12.3548 3.76071 12.3403 3.7506 12.3236C3.40892 11.7588 3.14388 11.1735 2.98424 10.6309C2.97871 10.6121 2.97688 10.5924 2.97887 10.5729C2.98086 10.5534 2.98661 10.5345 2.99582 10.5172C3.0144 10.4824 3.04588 10.4565 3.08334 10.4451C3.1208 10.4338 3.16116 10.438 3.19555 10.4569C3.22993 10.4757 3.25553 10.5076 3.2667 10.5456C3.41924 11.0636 3.67346 11.6245 4.00199 12.1675C4.01211 12.1842 4.01887 12.2028 4.0219 12.2222C4.02492 12.2416 4.02415 12.2613 4.01963 12.2804C4.0151 12.2995 4.00691 12.3175 3.99553 12.3333C3.98414 12.3492 3.96978 12.3626 3.95327 12.3729V12.3729Z" fill="white"/>
<path d="M5.84979 6.45357C5.87834 6.45358 5.90687 6.45211 5.93527 6.44918C6.21139 6.42063 6.45536 6.25974 6.62219 5.99619C6.78218 5.74343 6.85209 5.42407 6.81917 5.097C6.74979 4.40902 6.24066 3.89597 5.68364 3.95364C5.40749 3.98219 5.16352 4.14306 4.99669 4.40663C4.8367 4.65942 4.76678 4.97876 4.79971 5.30583C4.86541 5.9585 5.32719 6.4536 5.84979 6.45357Z" fill="white"/>
<path d="M3.92574 6.69147C4.01255 6.6916 4.09867 6.67582 4.17994 6.64488C4.39463 6.56308 4.55722 6.38579 4.63786 6.1456C4.71467 5.90493 4.70698 5.64476 4.61611 5.40917C4.42417 4.89263 3.91625 4.60642 3.48382 4.77116C3.26912 4.85294 3.10654 5.03026 3.02589 5.27041C2.94907 5.51109 2.95675 5.77127 3.04761 6.00687C3.2028 6.42443 3.56443 6.69147 3.92574 6.69147V6.69147Z" fill="white"/>
<path d="M2.4759 7.28657C2.54026 7.28665 2.60411 7.27495 2.66436 7.25201C2.74437 7.22045 2.81633 7.17102 2.87489 7.10739C2.93345 7.04376 2.97709 6.96758 3.00259 6.8845C3.05812 6.71104 3.05273 6.52346 2.98735 6.35356C2.84823 5.97909 2.47693 5.77271 2.15974 5.89361C2.07973 5.92518 2.00776 5.97462 1.9492 6.03825C1.89064 6.10188 1.84699 6.17807 1.82149 6.26115C1.76598 6.43461 1.77136 6.62217 1.83673 6.79206C1.94891 7.09399 2.21195 7.28657 2.4759 7.28657Z" fill="white"/>
<path d="M1.73229 8.32322C1.83564 8.32422 1.93665 8.29202 2.02083 8.23126C2.08244 8.18534 2.13303 8.12593 2.16885 8.05746C2.20466 7.98898 2.22477 7.91321 2.22768 7.83577C2.23561 7.67526 2.18852 7.51691 2.0944 7.38756C1.89046 7.10063 1.52553 7.01213 1.2812 7.1902C1.2196 7.23612 1.16901 7.29553 1.13319 7.364C1.09738 7.43247 1.07726 7.50825 1.07435 7.58569C1.06641 7.74621 1.11351 7.90456 1.20766 8.0339C1.3403 8.22054 1.54094 8.32325 1.73229 8.32322Z" fill="white"/>
<path d="M1.07306 9.42999C1.18659 9.50759 1.32017 9.54959 1.45712 9.55074C1.63765 9.55074 1.80528 9.47288 1.90273 9.32447C1.94442 9.25949 1.97111 9.18582 1.9808 9.10894C1.9905 9.03206 1.98294 8.95395 1.9587 8.88044C1.91025 8.72739 1.81107 8.59603 1.67798 8.5086C1.38726 8.31285 1.01508 8.36019 0.848278 8.61412C0.806595 8.67909 0.779913 8.75276 0.770217 8.82963C0.760521 8.90651 0.76806 8.9846 0.792275 9.05812C0.840725 9.21116 0.9399 9.34253 1.073 9.42996L1.07306 9.42999Z" fill="white"/>
</g>
<defs>
<clipPath id="clip0_907_2220">
<rect width="15.0913" height="15.2917" fill="white" transform="translate(0.442627 0.726837)"/>
</clipPath>
</defs>
</svg>
