<svg width="15" height="15" viewBox="0 0 15 15" fill="none" xmlns="http://www.w3.org/2000/svg">
<g clip-path="url(#clip0_907_2365)">
<path d="M7.16743 10.1058C6.76196 10.4185 5.9248 11.1919 5.9248 12.2455C5.9248 12.9411 6.48194 13.507 7.16679 13.507C7.85163 13.507 8.40877 12.9411 8.40877 12.2455C8.40877 11.2477 7.57113 10.438 7.16743 10.1058Z" fill="white"/>
<path d="M10.078 2.84148C9.92738 2.66888 9.66741 2.65842 9.50339 2.81357L7.61202 4.60228V0.856321C7.61202 0.542748 7.23889 0.308458 6.95947 0.47973C6.90657 0.512148 5.64964 1.28988 4.3796 2.70222C2.83539 4.4195 1.78369 6.51041 1.78369 8.85532C1.78369 11.8705 4.19871 14.3235 7.16713 14.3235C6.03903 14.3235 5.12128 13.3913 5.12128 12.2455C5.12128 10.3939 6.89537 9.29759 6.97088 9.25182C7.10325 9.17164 7.26898 9.17539 7.39771 9.26132C7.47183 9.31084 9.21296 10.4942 9.21296 12.2454C9.21298 13.3913 8.29523 14.3235 7.16713 14.3235C10.1356 14.3235 12.5506 11.8705 12.5506 8.85532C12.5506 6.57856 11.5591 4.53788 10.078 2.84148Z" fill="white"/>
</g>
<defs>
<clipPath id="clip0_907_2365">
<rect width="13.7194" height="13.9016" fill="white" transform="translate(0.307373 0.421906)"/>
</clipPath>
</defs>
</svg>
