<svg width="26" height="26" viewBox="0 0 26 26" fill="none" xmlns="http://www.w3.org/2000/svg">
<rect x="0.0725098" y="0.0247498" width="25.0229" height="25.0229" rx="5.56064" fill="#71DDB1" fill-opacity="0.11"/>
<path d="M13.3654 8.36569C12.3976 8.36569 11.4694 8.75016 10.785 9.43451C10.1007 10.1189 9.71622 11.047 9.71622 12.0149V14.1958L9.28623 14.6258C9.20119 14.7109 9.14329 14.8193 9.11983 14.9372C9.09638 15.0552 9.10842 15.1774 9.15444 15.2886C9.20047 15.3997 9.2784 15.4947 9.37839 15.5615C9.47839 15.6283 9.59595 15.664 9.71622 15.664H17.0146C17.1348 15.664 17.2524 15.6283 17.3524 15.5615C17.4524 15.4947 17.5303 15.3997 17.5763 15.2886C17.6224 15.1774 17.6344 15.0552 17.6109 14.9372C17.5875 14.8193 17.5296 14.7109 17.4445 14.6258L17.0146 14.1958V12.0149C17.0146 11.047 16.6301 10.1189 15.9457 9.43451C15.2614 8.75016 14.3332 8.36569 13.3654 8.36569ZM13.3654 18.0968C12.8815 18.0968 12.4174 17.9046 12.0752 17.5624C11.733 17.2202 11.5408 16.7561 11.5408 16.2722H15.19C15.19 16.7561 14.9977 17.2202 14.6556 17.5624C14.3134 17.9046 13.8493 18.0968 13.3654 18.0968Z" fill="#71DDB1"/>
</svg>
