<svg width="9" height="11" viewBox="0 0 9 11" fill="none" xmlns="http://www.w3.org/2000/svg">
<path d="M4.36539 0.365692C3.39757 0.365692 2.46939 0.750157 1.78504 1.43451C1.10068 2.11886 0.716219 3.04704 0.716219 4.01486V6.19584L0.286226 6.62584C0.201194 6.7109 0.14329 6.81925 0.119834 6.93721C0.0963772 7.05518 0.108421 7.17744 0.154443 7.28856C0.200465 7.39968 0.278399 7.49465 0.378392 7.56149C0.478386 7.62832 0.595949 7.664 0.716219 7.66403H8.01455C8.13482 7.664 8.25239 7.62832 8.35238 7.56149C8.45237 7.49465 8.53031 7.39968 8.57633 7.28856C8.62235 7.17744 8.63439 7.05518 8.61094 6.93721C8.58748 6.81925 8.52958 6.7109 8.44455 6.62584L8.01455 6.19584V4.01486C8.01455 3.04704 7.63009 2.11886 6.94574 1.43451C6.26139 0.750157 5.33321 0.365692 4.36539 0.365692ZM4.36539 10.0968C3.88148 10.0968 3.41739 9.90457 3.07521 9.5624C2.73303 9.22022 2.5408 8.75613 2.5408 8.27222H6.18997C6.18997 8.75613 5.99774 9.22022 5.65556 9.5624C5.31339 9.90457 4.8493 10.0968 4.36539 10.0968Z" fill="#71DDB1"/>
</svg>
